# xmcd CD database file
#
# Track frame offsets:
#	150
#	17460
#	39355
#	76458
#	96596
#	117843
#	136829
#	158395
#	165422
#	182242
#	207547
#	230617
#	254854
#	285034
#
# Disc length: 4117 seconds
#
# Revision: 0
# Processed by: cddbd v1.5.2PL0 Copyright (c) Steve Scherf et al.
# Submitted via: CDex 1.51
#
DISCID=b310130e
DTITLE=Lee Oskar - Lee Oskar Collection
DYEAR=1900
DGENRE=Blues
TTITLE0=Straighten Out That Line
TTITLE1=Song For Ray
TTITLE2=Ocean Blues
TTITLE3=Lee's Blues
TTITLE4=High Horse
TTITLE5=La Playa
TTITLE6=Sunset
TTITLE7=Blues Interlude
TTITLE8=See You Later
TTITLE9=Song For Peace
TTITLE10=Leslie's Song
TTITLE11=Lavender Song
TTITLE12=A Soulful Prayer
TTITLE13=Whatta Day
EXTD=
EXTT0=
EXTT1=
EXTT2=
EXTT3=
EXTT4=
EXTT5=
EXTT6=
EXTT7=
EXTT8=
EXTT9=
EXTT10=
EXTT11=
EXTT12=
EXTT13=
PLAYORDER=
